{"title":"Mystery Map S01E02 REPACK HDTV XviD-AFG [P2PDL]","uid":9392577,"size":404845497,"categoryP":"video","categoryS":"tv_shows","magnet":"?xt=urn:btih:65a8272f57d610d9ee079ba75b36b96eb28ae384&amp;dn=Mystery+Map+S01E02+REPACK+HDTV+XviD-AFG+%5BP2PDL%5D&amp;tr=udp%3A%2F%2Ftracker.openbittorrent.com%3A80&amp;tr=udp%3A%2F%2Fopen.demonii.com%3A1337&amp;tr=udp%3A%2F%2Ftracker.coppersurfer.tk%3A6969&amp;tr=udp%3A%2F%2Fexodus.desync.com%3A6969","seeders":1,"leechers":1,"uploader":"ValidusVyto","files":3,"time":1387912540,"description":"Mystery.Map.S01E02.REPACK.HDTV.XviD-AFG\n\nInfo:\nGeneral\nComplete name                            : Mystery.Map.S01E02.REPACK.HDTV.XviD-AFG.[P2PDL]/Mystery.Map.S01E02.REPACK.HDTV.XviD-AFG.avi\nFormat                                   : AVI\nFormat/Info                              : Audio Video Interleave\nFile size                                : 386 MiB\nDuration                                 : 45mn 59s\nOverall bit rate mode                    : Variable\nOverall bit rate                         : 1 174 Kbps\n\nVideo\nID                                       : 0\nFormat                                   : MPEG-4 Visual\nFormat profile                           : Advanced Simple@L5\nFormat settings, BVOP                    : 2\nFormat settings, QPel                    : No\nFormat settings, GMC                     : No warppoints\nFormat settings, Matrix                  : Default (H.263)\nCodec ID                                 : XVID\nCodec ID/Hint                            : XviD\nDuration                                 : 45mn 59s\nBit rate                                 : 1 033 Kbps\nWidth                                    : 640 pixels\nHeight                                   : 360 pixels\nDisplay aspect ratio                     : 16:9\nFrame rate                               : 25.000 fps\nColor space                              : YUV\nChroma subsampling                       : 4:2:0\nBit depth                                : 8 bits\nScan type                                : Progressive\nCompression mode                         : Lossy\nBits/(Pixel*Frame)                       : 0.179\nStream size                              : 340 MiB (88%)\nWriting library                          : XviD 64\n\nAudio\nID                                       : 1\nFormat                                   : MPEG Audio\nFormat version                           : Version 1\nFormat profile                           : Layer 3\nMode                                     : Joint stereo\nMode extension                           : MS Stereo\nCodec ID                                 : 55\nCodec ID/Hint                            : MP3\nDuration                                 : 45mn 59s\nBit rate mode                            : Variable\nBit rate                                 : 128 Kbps\nChannel(s)                               : 2 channels\nSampling rate                            : 48.0 KHz\nCompression mode                         : Lossy\nStream size                              : 42.1 MiB (11%)\nAlignment                                : Aligned on interleaves\nInterleave, duration                     : 24 ms (0.60 video frame)\nInterleave, preload duration             : 178 ms\nTitle                                    : Mystery.Map.S01E02.REPACK.HDTV.XviD-AFG_360p.audio\n\n\n\n\nScreenshots: &lt;a href=&quot;\nhttp://beeimg.com/images/c15972113851.jpg&quot; rel=&quot;nofollow&quot; target=&quot;_NEW&quot;&gt;\nhttp://beeimg.com/images/c15972113851.jpg&lt;/a&gt; &lt;a href=&quot;\nhttp://beeimg.com/images/o67387550732.jpg&quot; rel=&quot;nofollow&quot; target=&quot;_NEW&quot;&gt;\nhttp://beeimg.com/images/o67387550732.jpg&lt;/a&gt;","torrent":{"xt":"urn:btih:65a8272f57d610d9ee079ba75b36b96eb28ae384","amp;dn":"Mystery+Map+S01E02+REPACK+HDTV+XviD-AFG+%5BP2PDL%5D","amp;tr":["udp%3A%2F%2Ftracker.openbittorrent.com%3A80","udp%3A%2F%2Fopen.demonii.com%3A1337","udp%3A%2F%2Ftracker.coppersurfer.tk%3A6969","udp%3A%2F%2Fexodus.desync.com%3A6969"],"infoHash":"65a8272f57d610d9ee079ba75b36b96eb28ae384","infoHashBuffer":{"type":"Buffer","data":[101,168,39,47,87,214,16,217,238,7,155,167,91,54,185,110,178,138,227,132]},"announce":[],"urlList":[]}}